SplineFontDB: 3.0
FontName: source
FullName: source
FamilyName: source
Weight: Regular
Copyright: Generated from MetaFont bitmap by mftrace 1.2.18, http://www.xs4all.nl/~hanwen/mftrace/ 
Version: 001.001
ItalicAngle: 0
UnderlinePosition: -102
UnderlineWidth: 51
Ascent: 819
Descent: 205
LayerCount: 2
Layer: 0 0 "Back"  1
Layer: 1 0 "Fore"  0
FSType: 0
OS2Version: 0
OS2_WeightWidthSlopeOnly: 0
OS2_UseTypoMetrics: 0
CreationTime: 1431646992
ModificationTime: 1431650218
PfmFamily: 17
TTFWeight: 400
TTFWidth: 5
LineGap: 92
VLineGap: 92
OS2TypoAscent: 0
OS2TypoAOffset: 1
OS2TypoDescent: 0
OS2TypoDOffset: 1
OS2TypoLinegap: 92
OS2WinAscent: 0
OS2WinAOffset: 1
OS2WinDescent: 0
OS2WinDOffset: 1
HheadAscent: 0
HheadAOffset: 1
HheadDescent: 0
HheadDOffset: 1
OS2Vendor: 'PfEd'
Lookup: 4 0 1 "ligat"  {"ligat-1"  } ['liga' ('DFLT' <'dflt' > 'latn' <'dflt' > ) ]
MarkAttachClasses: 1
DEI: 91125
LangName: 1033 
Encoding: Custom
UnicodeInterp: none
NameList: Adobe Glyph List
DisplaySize: -36
AntiAlias: 1
FitToEm: 1
WidthSeparation: 90
WinInfo: 0 21 6
BeginPrivate: 3
lenIV 1 4
BlueValues 2 []
ForceBold 5 false
EndPrivate
TeXData: 1 0 0 346030 173015 115343 371406 1073742 115343 783286 444596 497025 792723 393216 433062 380633 303038 157286 324010 404750 52429 2506097 1059062 262144
BeginChars: 47 35

StartChar: quoteright
Encoding: 1 8217 1
Width: 0
VWidth: 7569
Flags: HW
LayerCount: 2
Fore
SplineSet
-455 779.52 m 0
 -447.889 793.742 -447.099 794.533 -358.518 794.533 c 0
 -347.444 794.533 -335 794.52 -321 794.52 c 0
 -306.8 794.52 -293.24 794.561 -280.632 794.561 c 0
 -230.2 794.561 -195 793.92 -195 787.52 c 2
 -195 787.52 -203 779.52 -211 763.52 c 0
 -219 747.52 -219 747.52 -345 747.52 c 0
 -416 747.52 -471 747.52 -471 755.52 c 2
 -471 755.52 -463 763.52 -455 779.52 c 0
EndSplineSet
Validated: 524289
EndChar

StartChar: C
Encoding: 2 67 2
Width: 664
VWidth: 7569
Flags: HW
LayerCount: 2
Fore
SplineSet
555 654 m 0
 563 658 574.75 660 586.5 660 c 0
 598.25 660 610 658 618 654 c 0
 634 646 634 631 634 599 c 0
 626 536 610 489 563 418 c 1
 531 355 l 1
 531 268 l 2
 531.006 249.41 l 0
 531.006 180.77 530.154 178 508 142 c 2
 484 103 l 1
 476 189 l 1
 476 276 l 1
 452 252 l 2
 420 220 342 174 279 150 c 0
 224 126 129 103 74 103 c 2
 42 103 l 1
 42 339 l 2
 42 576 50 583 66 615 c 0
 74 631 90 647 90 647 c 2
 98 647 98 544 98 418 c 0
 98 393.444 97.9873 371.519 97.9873 351.941 c 0
 97.9873 195.321 98.7773 189 113 189 c 0
 121 189 161 197 200 205 c 0
 279 213 358 245 429 292 c 2
 476 323 l 1
 476 434 l 1
 476 536 l 1
 508 591 l 2
 524 623 547 646 555 654 c 0
571 568 m 0
 563 576 555 576 547 576 c 0
 531 576 531 568 531 481 c 0
 531 425.797 533.701 397.606 539.104 397.606 c 0
 542.999 397.606 548.297 412.257 555 442 c 0
 570.216 487.012 575.784 522.378 575.784 544.276 c 0
 575.784 556.919 573.928 565.072 571 568 c 0
287 513 m 0
 289.144 515.144 291.216 516.139 293.716 516.139 c 0
 300.546 516.139 310.574 508.713 334 497 c 2
 374 473 l 1
 358 442 l 2
 338.52 408.518 330.897 395.048 319.117 395.048 c 0
 311.547 395.048 302.258 400.61 287 410 c 2
 247 434 l 1
 263 465 l 2
 271 489 287 505 287 513 c 0
58 55 m 1
 82 95 l 1
 334 95 l 1
 586 95 l 1
 563 47 l 1
 539 8 l 1
 287 8 l 1
 34 8 l 1
 58 55 l 1
EndSplineSet
Validated: 524289
EndChar

StartChar: Q
Encoding: 3 81 3
Width: 141
VWidth: 7569
Flags: HW
LayerCount: 2
Fore
SplineSet
64 607 m 2
 72 631 87 647 87 647 c 2
 95 647 95 544 95 418 c 2
 95 181 l 1
 72 142 l 1
 48 103 l 1
 40 331 l 1
 40 568 l 1
 64 607 l 2
EndSplineSet
Validated: 1
EndChar

StartChar: S
Encoding: 4 83 4
Width: 661
VWidth: 7569
Flags: HW
LayerCount: 2
Fore
SplineSet
552 654 m 0
 560 658 571.75 660 583.5 660 c 0
 595.25 660 607 658 615 654 c 0
 631 646 631 631 631 599 c 0
 623 536 607 489 560 418 c 1
 529 355 l 1
 529 268 l 2
 529 181 529 181 505 142 c 2
 481 103 l 1
 473 189 l 1
 473 276 l 1
 450 252 l 2
 418 220 339 174 276 150 c 0
 221 126 126 103 71 103 c 2
 40 103 l 1
 40 339 l 2
 40 576 47 583 63 615 c 0
 71 631 87 647 87 647 c 2
 95 647 95 544 95 418 c 0
 95 197 95 189 111 189 c 0
 119 189 158 197 197 205 c 0
 276 213 355 245 426 292 c 2
 473 323 l 1
 473 434 l 1
 473 536 l 1
 505 591 l 2
 521 623 544 646 552 654 c 0
568 568 m 0
 560 576 552 576 544 576 c 0
 529.777 576 528.987 569.679 528.987 507.172 c 0
 528.987 499.358 529 490.667 529 481 c 0
 529 425.797 531.363 397.606 536.483 397.606 c 0
 540.174 397.606 545.298 412.257 552 442 c 0
 567.216 487.012 572.784 522.378 572.784 544.276 c 0
 572.784 556.919 570.928 565.072 568 568 c 0
284 513 m 0
 286.144 515.144 288.287 516.139 290.893 516.139 c 0
 298.011 516.139 308.574 508.713 332 497 c 2
 371 473 l 1
 355 442 l 2
 335.52 408.518 327.897 395.048 316.117 395.048 c 0
 308.547 395.048 299.258 400.61 284 410 c 2
 245 434 l 1
 261 465 l 2
 269 489 284 505 284 513 c 0
EndSplineSet
Validated: 524289
EndChar

StartChar: a
Encoding: 5 97 5
Width: 0
VWidth: 7569
Flags: HW
LayerCount: 2
Fore
SplineSet
-444.919 914.8 m 4
 -436.919 930.8 -429.919 930.8 -413.919 930.8 c 4
 -366.919 914.8 -334.919 875.8 -318.919 828.8 c 4
 -318.919 818.797 -319.093 812.964 -316.979 812.964 c 4
 -314.021 812.964 -306.582 824.388 -287.919 851.8 c 4
 -263.919 898.8 -224.919 930.8 -200.919 930.8 c 4
 -190.841 930.8 -186.317 926.932 -186.317 921.132 c 4
 -186.317 908.516 -207.721 886.761 -239.919 875.8 c 4
 -278.919 859.8 -287.919 844.8 -295.919 765.8 c 4
 -303.919 694.8 -318.919 654.8 -326.919 654.8 c 6
 -342.919 717.8 l 5
 -350.919 820.8 -382.919 867.8 -437.919 883.8 c 5
 -443.226 883.796 l 4
 -456.403 883.796 -462.479 884.016 -462.479 887.94 c 4
 -462.479 891.908 -456.273 899.661 -444.919 914.8 c 4
EndSplineSet
Validated: 524289
EndChar

StartChar: b
Encoding: 6 98 6
Width: 688
VWidth: 7569
Flags: HW
LayerCount: 2
Fore
SplineSet
71.4648 615 m 5
 95.4648 654 l 5
 347.465 654 l 5
 599.465 654 l 5
 599.465 591 l 6
 599.465 512 583.465 449 544.465 378 c 6
 513.465 323 l 5
 536.465 331 l 5
 552.801 341.053 567.908 345.491 581.714 345.491 c 4
 600.868 345.491 617.518 336.947 631.465 323 c 4
 646.449 308.017 654.197 293.252 654.197 274.498 c 4
 654.197 253.199 644.204 226.755 623.465 189 c 4
 584.465 118 560.465 103 513.465 95 c 5
 473.465 95 l 5
 473.465 -95 l 5
 473.465 -276 l 5
 450.465 -315 l 6
 442.465 -339 426.465 -355 426.465 -355 c 6
 418.465 -355 418.465 -252 418.465 -118 c 6
 418.465 118 l 5
 394.465 134 l 5
 363.465 158 l 5
 331.465 142 l 6
 281.684 117.424 219.593 104.761 168.713 104.761 c 4
 138.85 104.761 112.849 109.123 95.4648 118 c 4
 79.4648 126 55.4648 142 47.4648 158 c 4
 37.6357 173.973 32 191.287 32 211.592 c 4
 32 240.865 43.7139 276.354 71.4648 323 c 4
 118.465 402 150.465 418 205.465 418 c 5
 252.465 410 292.465 387 363.465 308 c 4
 394.356 271.852 404.943 259.029 413.115 259.029 c 4
 417.377 259.029 420.981 262.516 426.465 268 c 4
 465.465 292 497.465 323 513.465 355 c 4
 529.465 394 544.465 473 544.465 528 c 6
 544.465 568 l 5
 292.465 568 l 5
 47.4648 568 l 5
 71.4648 615 l 5
229.465 308 m 4
 206.742 321.221 179.923 327.443 155.707 327.443 c 4
 121.308 327.443 92.1602 314.888 87.4648 292 c 4
 87.4648 284 95.4648 260 103.465 244 c 4
 121.441 208.796 147.833 190.984 193.146 190.984 c 4
 208.329 190.984 225.638 192.984 245.465 197 c 4
 284.465 197 315.465 205 315.465 205 c 6
 315.942 205.478 316.171 206.18 316.171 207.082 c 4
 316.171 221.309 259.556 285.433 229.465 308 c 4
560.465 252 m 4
 551.66 256.402 541.719 258.458 531.935 258.458 c 4
 506.158 258.458 481.465 244.195 481.465 221 c 5
 479.067 213.807 477.479 208.051 477.479 203.302 c 4
 477.479 192.204 486.154 186.603 513.465 181 c 4
 537.465 181 599.465 189 599.465 205 c 4
 599.465 213 576.465 252 560.465 252 c 4
450.465 221 m 6
 452.809 225.687 453.779 229.687 453.779 232.598 c 4
 453.779 235.83 452.583 237.722 450.741 237.722 c 4
 448.576 237.722 445.521 235.111 442.465 229 c 5
 442.465 213 l 5
 450.465 213 450.465 221 450.465 221 c 6
EndSplineSet
Validated: 524289
EndChar

StartChar: c
Encoding: 7 99 7
Width: 664
VWidth: 7569
Flags: HW
LayerCount: 2
Fore
SplineSet
555 654 m 0
 563 658 574.75 660 586.5 660 c 0
 598.25 660 610 658 618 654 c 0
 634 646 634 631 634 599 c 0
 626 536 610 489 563 418 c 1
 531 355 l 1
 531 268 l 2
 531.006 249.41 l 0
 531.006 180.77 530.154 178 508 142 c 2
 484 103 l 1
 476 189 l 1
 476 276 l 1
 452 252 l 2
 420 220 342 174 279 150 c 0
 224 126 129 103 74 103 c 2
 42 103 l 1
 42 339 l 2
 42 576 50 583 66 615 c 0
 74 631 90 647 90 647 c 2
 98 647 98 544 98 418 c 0
 98 393.444 97.9873 371.519 97.9873 351.941 c 0
 97.9873 195.321 98.7773 189 113 189 c 0
 121 189 161 197 200 205 c 0
 279 213 358 245 429 292 c 2
 476 323 l 1
 476 434 l 1
 476 536 l 1
 508 591 l 2
 524 623 547 646 555 654 c 0
571 568 m 0
 563 576 555 576 547 576 c 0
 531 576 531 568 531 481 c 0
 531 425.797 533.701 397.606 539.104 397.606 c 0
 542.999 397.606 548.297 412.257 555 442 c 0
 570.216 487.012 575.784 522.378 575.784 544.276 c 0
 575.784 556.919 573.928 565.072 571 568 c 0
58 55 m 1
 82 95 l 1
 334 95 l 1
 586 95 l 1
 563 47 l 1
 539 8 l 1
 287 8 l 1
 34 8 l 1
 58 55 l 1
EndSplineSet
Validated: 524289
EndChar

StartChar: d
Encoding: 8 100 8
Width: 632
VWidth: 7569
Flags: HW
LayerCount: 2
Fore
SplineSet
64 615 m 4
 72 631 87 647 87 647 c 6
 95 647 95 544 95 418 c 6
 95 189 l 5
 143 197 l 5
 293 213 450 315 497 410 c 4
 505 434 513 473 521 505 c 4
 529 560 560 647 576 647 c 4
 584 647 584 441 584 181 c 6
 584 -276 l 5
 560 -315 l 6
 552 -339 537 -355 537 -355 c 6
 529 -355 529 -182 529 39 c 6
 529 426 l 5
 490 363 l 6
 443 284 364 205 285 166 c 4
 222 127 127 103 72 103 c 6
 40 103 l 5
 40 339 l 6
 40 576 48 583 64 615 c 4
EndSplineSet
Validated: 1
EndChar

StartChar: e
Encoding: 9 101 9
Width: 0
VWidth: 7569
Flags: HW
LayerCount: 2
Fore
SplineSet
-458.5 931 m 4
 -443.566 934.063 -427.313 936.101 -411.144 936.101 c 4
 -385.086 936.101 -359.247 930.811 -339.5 916 c 4
 -323.5 908 -308.5 884 -292.5 860 c 4
 -245.917 793.09 -221.572 772.09 -176.935 772.09 c 4
 -168.869 772.09 -160.142 772.775 -150.5 774 c 4
 -111.5 782 -79.5 813 -71.5 860 c 4
 -71.5 876 -64.5 908 -56.5 916 c 6
 -40.5 939 l 5
 -40.5 916 l 6
 -40.5 884 -79.5 805 -103.5 766 c 5
 -126.388 743.112 -160.641 730.557 -194.536 730.557 c 4
 -218.397 730.557 -242.082 736.779 -261.5 750 c 4
 -277.5 758 -292.5 781 -308.5 805 c 4
 -351.104 866.194 -379.906 889.587 -420.007 889.587 c 4
 -431.676 889.587 -444.3 887.606 -458.5 884 c 4
 -497.5 876 -521.5 844 -529.5 805 c 4
 -534.826 763.056 -546.802 735.296 -554.211 735.296 c 4
 -557.931 735.296 -560.5 742.292 -560.5 758 c 4
 -560.5 782 -529.5 853 -497.5 892 c 4
 -489.5 908 -466.5 923 -458.5 931 c 4
EndSplineSet
Validated: 524289
EndChar

StartChar: f
Encoding: 10 102 10
Width: 689
VWidth: 7569
Flags: HW
LayerCount: 2
Fore
SplineSet
71.7705 615 m 1
 95.7705 654 l 1
 347.771 654 l 1
 600.771 654 l 1
 600.771 591 l 2
 600.771 512 583.771 449 544.771 378 c 0
 529.535 348.166 521.151 334.046 521.151 329.758 c 0
 521.151 328.752 521.612 328.287 522.554 328.287 c 0
 523.923 328.287 526.309 329.27 529.771 331 c 0
 543.174 341.053 559.033 345.491 574.704 345.491 c 0
 596.445 345.491 617.823 336.947 631.771 323 c 0
 646.033 308.737 653.74 293.083 653.74 273.825 c 0
 653.74 249.877 641.821 220.354 615.771 181 c 0
 576.771 110 560.771 95 505.771 87 c 0
 466.771 87 411.771 102 379.771 134 c 1
 363.771 158 l 1
 331.771 142 l 2
 284.771 118 213.771 103 166.771 103 c 0
 85.3828 103 32 144.131 32 214.113 c 0
 32 218.939 32.2539 223.903 32.7705 229 c 0
 40.7705 276 95.7705 370 134.771 402 c 0
 152.017 412.677 171.062 418.106 191.413 418.106 c 0
 245.403 418.106 308.587 379.887 371.771 300 c 0
 396.818 269.473 401.647 257.326 410.236 257.326 c 0
 412.62 257.326 415.294 258.262 418.771 260 c 0
 450.771 276 497.771 323 513.771 355 c 0
 529.771 394 544.771 473 544.771 528 c 2
 544.771 568 l 1
 292.771 568 l 1
 48.7705 568 l 1
 71.7705 615 l 1
221.771 308 m 0
 201.163 322.03 174.404 328.371 150.176 328.371 c 0
 119.145 328.371 92.2627 317.97 87.7705 300 c 0
 87.7705 292 95.7705 268 103.771 252 c 0
 127.771 197 158.771 189 221.771 189 c 1
 253.771 197 284.771 197 292.771 205 c 2
 316.771 213 l 1
 284.771 252 l 2
 268.771 268 245.771 300 221.771 308 c 0
560.771 252 m 0
 552.771 256 541.021 258 531.271 258 c 0
 521.521 258 513.771 256 513.771 252 c 0
 512.64 249.74 512.129 247.021 512.129 244.018 c 0
 512.129 225.76 531.03 197 544.771 197 c 0
 560.771 193 574.771 191 584.771 191 c 0
 594.771 191 600.771 193 600.771 197 c 0
 600.771 213 576.771 252 560.771 252 c 0
458.771 229 m 0
 465.962 243.384 469.921 251.302 469.921 253.481 c 0
 469.921 253.9 469.774 254.107 469.477 254.107 c 0
 467.878 254.107 461.908 248.139 450.771 237 c 0
 445.113 225.687 439.456 218.373 439.456 215.059 c 0
 439.456 213.687 440.427 213 442.771 213 c 1
 442.771 210.856 443.919 209.861 445.601 209.861 c 0
 450.195 209.861 458.771 217.287 458.771 229 c 0
EndSplineSet
Validated: 524289
EndChar

StartChar: g
Encoding: 11 103 11
Width: 615
VWidth: 7569
Flags: HW
LayerCount: 2
Fore
SplineSet
58 615 m 1
 81 654 l 1
 334 654 l 1
 586 654 l 1
 562 615 l 1
 539 568 l 1
 421 560 l 2
 295 552 231 537 160 513 c 1
 105 481 89 465 89 426 c 0
 89 347 137 283 208 244 c 0
 249.846 222.632 341.634 195.715 361.26 195.715 c 0
 363.678 195.715 365 196.123 365 197 c 0
 381 236 428 315 436 331 c 0
 447.139 342.139 463.23 348.107 480.479 348.107 c 0
 500.395 348.107 521.852 340.148 539 323 c 0
 553.983 308.017 561.732 291.498 561.732 270.878 c 0
 561.732 247.462 551.738 218.755 531 181 c 0
 499 118 476 103 444 103 c 2
 421 103 l 1
 421 -87 l 1
 421 -276 l 1
 397 -315 l 2
 389 -339 373 -355 373 -355 c 2
 365 -355 365 -252 365 -126 c 2
 365 103 l 1
 334 103 l 1
 145 135 34 221 34 339 c 0
 34 378 42 394 66 449 c 0
 82 481 105 520 121 536 c 2
 145 568 l 1
 89 568 l 1
 34 568 l 1
 58 615 l 1
468 252 m 1
 468 260 452 260 436 260 c 0
 433.35 260.004 l 0
 421.677 260.004 420.987 259.314 420.987 238.491 c 0
 420.987 235.704 421 232.556 421 229 c 2
 421 189 l 1
 460 189 l 2
 484 189 499 189 499 197 c 0
 500.13 198.13 500.642 200.038 500.642 202.482 c 0
 500.642 217.341 481.74 252 468 252 c 1
EndSplineSet
Validated: 524289
EndChar

StartChar: h
Encoding: 12 104 12
Width: 615
VWidth: 7569
Flags: HW
LayerCount: 2
Fore
SplineSet
276 427.1 m 6
 292 458.1 l 5
 331 435.1 l 6
 355 419.1 371 403.1 371 403.1 c 6
 371 395.1 363 380.1 347 356.1 c 6
 331 324.1 l 5
 292 348.1 l 6
 268 364.1 253 380.1 253 380.1 c 6
 253 388.1 260 403.1 276 427.1 c 6
58 615 m 1
 82 654 l 1
 334 654 l 1
 586 654 l 1
 563 615 l 1
 539 568 l 1
 421 560 l 2
 295 552 232 537 161 513 c 1
 106 481 90 465 90 426 c 0
 90 347 137 283 208 244 c 0
 249.846 222.632 342.426 195.715 362.227 195.715 c 0
 364.665 195.715 366 196.123 366 197 c 0
 382 236 429 315 437 331 c 0
 448.139 342.139 464.016 348.107 481.032 348.107 c 0
 500.682 348.107 521.852 340.148 539 323 c 0
 553.983 308.017 561.732 291.498 561.732 270.878 c 0
 561.732 247.462 551.738 218.755 531 181 c 0
 499 118 476 103 444 103 c 2
 421 103 l 1
 421 -87 l 1
 421 -276 l 1
 397 -315 l 2
 389 -339 374 -355 374 -355 c 2
 366 -355 366 -252 366 -126 c 2
 366 103 l 1
 334 103 l 1
 145 135 34 221 34 339 c 0
 34 378 42 394 66 449 c 0
 82 481 105 520 121 536 c 2
 145 568 l 1
 90 568 l 1
 34 568 l 1
 58 615 l 1
468 252 m 1
 468 260 453 260 437 260 c 0
 434.339 260.004 l 0
 421 260.004 421 259.117 421 229 c 2
 421 189 l 1
 460 189 l 2
 484 189 500 189 500 197 c 0
 501.094 198.094 501.589 199.915 501.589 202.246 c 0
 501.589 216.97 481.813 252 468 252 c 1
EndSplineSet
Validated: 524289
EndChar

StartChar: i
Encoding: 13 105 13
Width: 0
VWidth: 7569
Flags: HW
LayerCount: 2
Fore
SplineSet
-300.473 878.5 m 4
 -166.473 957.5 -55.4727 1028.5 -47.4727 1028.5 c 4
 -43.4727 1028.5 -41.4727 1026.5 -41.4727 1022.5 c 4
 -41.4727 1018.5 -43.4727 1012.5 -47.4727 1004.5 c 4
 -55.4727 996.5 -134.473 941.5 -300.473 831.5 c 5
 -434.473 752.5 -552.473 681.5 -552.473 681.5 c 6
 -555.139 681.5 -556.027 682.389 -556.027 684.167 c 4
 -556.027 687.723 -552.473 694.833 -552.473 705.5 c 5
 -544.473 713.5 -458.473 775.5 -300.473 878.5 c 4
EndSplineSet
Validated: 524289
EndChar

StartChar: j
Encoding: 14 106 14
Width: 0
VWidth: 7569
Flags: HW
LayerCount: 2
Fore
SplineSet
-321.014 979.65 m 0
 -313.014 995.65 -305.014 1002.65 -305.014 1002.65 c 2
 -297.014 1002.65 -285.833 949.333 -285.833 894.333 c 4
 -285.833 784.333 -305.014 734.65 -321.014 734.65 c 0
 -325.014 734.65 -337.833 789.583 -337.833 848.833 c 0
 -337.833 908.083 -325.014 971.65 -321.014 979.65 c 0
EndSplineSet
Validated: 524289
EndChar

StartChar: k
Encoding: 15 107 15
Width: 615
VWidth: 7569
Flags: HW
LayerCount: 2
Fore
SplineSet
55 615 m 1
 79 654 l 1
 331 654 l 1
 583 654 l 1
 560 615 l 1
 536 568 l 1
 441 568 l 1
 283 552 157 520 110 473 c 0
 100.186 463.186 95.6387 446.785 95.6387 427.176 c 0
 95.6387 382.852 118.869 322.131 157 284 c 0
 212 229 316 205 489 189 c 1
 583 189 l 1
 560 142 l 1
 536 103 l 1
 433 103 l 1
 315 111 244 126 173 158 c 0
 78 205 39 260 39 339 c 0
 39 378 47 394 71 449 c 0
 87 481 110 520 126 536 c 2
 150 568 l 1
 94 568 l 1
 31 568 l 1
 55 615 l 1
EndSplineSet
Validated: 524289
EndChar

StartChar: l
Encoding: 16 108 16
Width: 612
VWidth: 7569
Flags: HW
LayerCount: 2
Fore
SplineSet
304 607 m 0
 312 631 328 647 328 647 c 1
 343 552 l 1
 359 386 391 300 454 237 c 0
 478 213 494 205 533 197 c 2
 580 189 l 1
 556 142 l 2
 537.105 114.249 524.138 102.535 505.363 102.535 c 0
 492.342 102.535 476.525 108.171 454 118 c 0
 391 150 336 213 312 308 c 0
 306.076 336.881 295.765 353.148 290.812 353.148 c 0
 289.077 353.148 288 351.151 288 347 c 0
 288 331 210 198 186 166 c 0
 154 134 91 103 52 103 c 2
 28 103 l 1
 52 150 l 2
 68 174 83 189 91 189 c 0
 115 189 178 213 202 237 c 0
 241 269 264 339 272 473 c 0
 280 544 288 575 304 607 c 0
EndSplineSet
Validated: 524289
EndChar

StartChar: m
Encoding: 17 109 17
Width: 636
VWidth: 7569
Flags: HW
LayerCount: 2
Fore
SplineSet
380.885 71.5996 m 6
 396.885 102.6 l 5
 435.885 79.5996 l 6
 459.885 63.5996 475.885 47.5996 475.885 47.5996 c 6
 475.885 39.5996 467.885 24.5996 451.885 0.599609 c 6
 435.885 -31.4004 l 5
 396.885 -7.40039 l 6
 372.885 8.59961 356.885 24.5996 356.885 24.5996 c 6
 356.885 32.5996 364.885 47.5996 380.885 71.5996 c 6
71.7695 615 m 1
 95.7695 654 l 1
 347.77 654 l 1
 599.77 654 l 1
 599.77 576 l 1
 591.77 481 575.77 442 528.77 355 c 2
 497.77 300 l 1
 520.77 276 l 2
 536.77 268 560.77 245 568.77 221 c 1
 599.77 189 l 1
 576.77 142 l 2
 560.77 118 544.77 103 544.77 103 c 1
 544.77 103 529.77 118 513.77 142 c 0
 497.77 158 481.77 189 465.77 197 c 2
 442.77 221 l 1
 410.77 197 l 1
 339.77 134 253.77 103 166.77 103 c 0
 85.3828 103 32 144.131 32 214.113 c 0
 32 218.939 32.2539 223.903 32.7695 229 c 0
 40.7695 276 95.7695 370 134.77 402 c 0
 153.164 413.387 178.292 418.807 207.79 418.807 c 0
 279.324 418.807 376.558 386.935 465.77 331 c 2
 489.77 315 l 1
 505.77 339 l 2
 529.77 378 536.77 426 536.77 497 c 2
 544.77 568 l 1
 292.77 568 l 1
 47.7695 568 l 1
 71.7695 615 l 1
229.77 323 m 0
 204.605 328.097 181.876 330.758 162.325 330.758 c 0
 120.5 330.758 93.2217 318.577 87.7695 292 c 0
 87.7695 284 95.7695 260 103.77 244 c 0
 121.746 208.796 148.138 190.984 193.45 190.984 c 0
 208.634 190.984 225.942 192.984 245.77 197 c 0
 284.77 197 331.77 213 355.77 229 c 2
 410.77 252 l 1
 379.77 268 l 2
 340.77 292 276.77 315 229.77 323 c 0
EndSplineSet
Validated: 524289
EndChar

StartChar: n
Encoding: 18 110 18
Width: 630
VWidth: 7569
Flags: HW
LayerCount: 2
Fore
SplineSet
64 615 m 0
 72 631 87 647 87 647 c 2
 95 647 95 544 95 418 c 2
 95 189 l 1
 143 197 l 1
 293 213 450 315 497 410 c 0
 505 434 513 473 521 505 c 0
 529 560 560 647 576 647 c 0
 584 647 584 544 584 418 c 2
 584 181 l 1
 560 142 l 1
 537 103 l 1
 529 260 l 1
 529 426 l 1
 489 363 l 2
 442 284 363 205 284 166 c 0
 221 127 127 103 72 103 c 2
 40 103 l 1
 40 339 l 2
 40 576 48 583 64 615 c 0
284 513 m 0
 286.144 515.144 288.287 516.139 290.893 516.139 c 0
 298.011 516.139 308.574 508.713 332 497 c 2
 371 473 l 1
 355 442 l 2
 335.52 408.518 327.897 395.048 316.117 395.048 c 0
 308.547 395.048 299.258 400.61 284 410 c 2
 245 434 l 1
 261 465 l 2
 269 489 284 505 284 513 c 0
EndSplineSet
Validated: 524289
EndChar

StartChar: o
Encoding: 19 111 19
Width: 0
VWidth: 7569
Flags: HW
LayerCount: 2
Fore
SplineSet
-118.349 973.808 m 4
 -111.722 977.121 -103.893 979.062 -95.29 979.062 c 4
 -83.123 979.062 -69.4082 975.181 -55.3486 965.808 c 4
 -44.8203 958.639 -40.1631 944.395 -40.1631 926.335 c 4
 -40.1631 863.775 -96.0459 755.432 -157.349 736.808 c 4
 -168.377 733.6 -179.444 732 -190.407 732 c 4
 -234.122 732 -276.169 757.439 -307.349 807.808 c 4
 -349.952 869.002 -378.755 892.395 -418.855 892.395 c 4
 -430.524 892.395 -443.149 890.414 -457.349 886.808 c 4
 -496.349 878.808 -520.349 846.808 -528.349 807.808 c 4
 -533.675 765.863 -545.65 738.104 -553.061 738.104 c 4
 -556.779 738.104 -559.349 745.1 -559.349 760.808 c 4
 -559.349 784.808 -520.349 863.808 -496.349 902.808 c 5
 -473.461 925.695 -439.553 938.251 -405.942 938.251 c 4
 -382.28 938.251 -358.767 932.028 -339.349 918.808 c 4
 -323.349 910.808 -307.349 886.808 -291.349 862.808 c 4
 -244.766 795.897 -220.421 774.897 -175.784 774.897 c 4
 -167.719 774.897 -158.99 775.583 -149.349 776.808 c 4
 -125.349 784.808 -78.3486 815.808 -78.3486 839.808 c 4
 -78.3486 847.808 -86.3486 847.808 -102.349 839.808 c 5
 -134.349 839.808 -165.349 854.808 -165.349 886.808 c 4
 -165.349 910.808 -142.349 957.808 -118.349 973.808 c 4
-78.3486 918.808 m 4
 -83.1855 928.481 -96.7949 934.864 -108.569 934.864 c 4
 -116.27 934.864 -123.186 932.134 -126.349 925.808 c 4
 -130.067 922.089 -131.625 917.992 -131.625 913.895 c 4
 -131.625 900.359 -114.631 886.808 -102.349 886.808 c 4
 -81.0156 886.808 -73.9043 890.363 -73.9043 899.845 c 4
 -73.9043 904.585 -75.6826 910.808 -78.3486 918.808 c 4
EndSplineSet
Validated: 524289
EndChar

StartChar: p
Encoding: 20 112 20
Width: 636
VWidth: 7569
Flags: HW
LayerCount: 2
Fore
SplineSet
71.7695 615 m 1
 95.7695 654 l 1
 347.77 654 l 1
 599.77 654 l 1
 599.77 576 l 1
 591.77 481 575.77 442 528.77 355 c 2
 497.77 300 l 1
 520.77 276 l 2
 536.77 268 560.77 245 568.77 221 c 1
 599.77 189 l 1
 576.77 142 l 2
 560.77 118 544.77 103 544.77 103 c 1
 544.77 103 529.77 118 513.77 142 c 0
 497.77 158 481.77 189 465.77 197 c 2
 442.77 221 l 1
 410.77 197 l 1
 339.77 134 253.77 103 166.77 103 c 0
 85.3828 103 32 144.131 32 214.113 c 0
 32 218.939 32.2539 223.903 32.7695 229 c 0
 40.7695 276 95.7695 370 134.77 402 c 0
 153.164 413.387 178.292 418.807 207.79 418.807 c 0
 279.324 418.807 376.558 386.935 465.77 331 c 2
 489.77 315 l 1
 505.77 339 l 2
 529.77 378 536.77 426 536.77 497 c 2
 544.77 568 l 1
 292.77 568 l 1
 47.7695 568 l 1
 71.7695 615 l 1
229.77 323 m 0
 204.605 328.097 181.876 330.758 162.325 330.758 c 0
 120.5 330.758 93.2217 318.577 87.7695 292 c 0
 87.7695 284 95.7695 260 103.77 244 c 0
 121.746 208.796 148.138 190.984 193.45 190.984 c 0
 208.634 190.984 225.942 192.984 245.77 197 c 0
 284.77 197 331.77 213 355.77 229 c 2
 410.77 252 l 1
 379.77 268 l 2
 340.77 292 276.77 315 229.77 323 c 0
EndSplineSet
Validated: 524289
EndChar

StartChar: r
Encoding: 21 114 21
Width: 451
VWidth: 7569
Flags: HW
LayerCount: 2
Fore
SplineSet
178.12 639 m 0
 199.246 649.43 222.089 654.28 244.965 654.28 c 0
 307.632 654.28 370.55 617.874 399.12 560 c 0
 409.478 539.716 415.18 520.736 415.18 500.648 c 0
 415.18 474.19 405.289 445.811 383.12 410 c 0
 367.12 378 344.12 355 336.12 347 c 0
 328.12 339 288.12 331 209.12 331 c 0
 154.12 331 99.1201 323 91.1201 323 c 1
 91.1201 315 99.1201 300 107.12 276 c 0
 134.948 219.629 183.144 191.263 240.079 191.263 c 0
 262.935 191.263 287.199 195.834 312.12 205 c 0
 344.12 221 359.12 228 359.12 252 c 0
 367.12 276 399.12 339 407.12 339 c 0
 410.714 339 412.334 335.816 412.334 330.244 c 0
 412.334 298.604 360.082 189.962 320.12 150 c 0
 292.62 117.819 248.688 101.729 204.347 101.729 c 0
 172.905 101.729 141.259 109.819 115.12 126 c 0
 68.1201 158 44.1201 197 36.1201 244 c 0
 36.1201 246.294 36.1162 248.484 36.1162 250.586 c 0
 36.1162 284.218 37.0029 295.235 67.1201 347 c 1
 91.1201 371 115.12 402 123.12 410 c 1
 139.12 410 178.12 418 233.12 418 c 0
 252.821 417.996 l 0
 334.35 417.996 353.352 418.595 353.352 435.535 c 0
 353.352 439.203 352.461 443.639 351.12 449 c 0
 343.12 481 320.12 520 288.12 544 c 0
 265.905 557.752 235.856 563.795 205.91 563.795 c 0
 150.932 563.795 96.2988 543.427 91.1201 513 c 0
 91.1201 489 44.1201 410 36.1201 410 c 0
 34.6953 410 34 412.251 34 416.216 c 0
 34 434.522 48.8174 489.368 75.1201 528 c 0
 114.12 599 139.12 623 178.12 639 c 0
EndSplineSet
Validated: 524289
EndChar

StartChar: s
Encoding: 22 115 22
Width: 661
VWidth: 7569
Flags: HW
LayerCount: 2
Fore
SplineSet
552 654 m 0
 560 658 571.75 660 583.5 660 c 0
 595.25 660 607 658 615 654 c 0
 631 646 631 631 631 599 c 0
 623 536 607 489 560 418 c 1
 529 355 l 1
 529 268 l 2
 529 181 529 181 505 142 c 2
 481 103 l 1
 473 189 l 1
 473 276 l 1
 450 252 l 2
 418 220 339 174 276 150 c 0
 221 126 126 103 71 103 c 2
 40 103 l 1
 40 339 l 2
 40 576 47 583 63 615 c 0
 71 631 87 647 87 647 c 2
 95 647 95 544 95 418 c 0
 95 197 95 189 111 189 c 0
 119 189 158 197 197 205 c 0
 276 213 355 245 426 292 c 2
 473 323 l 1
 473 434 l 1
 473 536 l 1
 505 591 l 2
 521 623 544 646 552 654 c 0
568 568 m 0
 560 576 552 576 544 576 c 0
 529.777 576 528.987 569.679 528.987 507.172 c 0
 528.987 499.358 529 490.667 529 481 c 0
 529 425.797 531.363 397.606 536.483 397.606 c 0
 540.174 397.606 545.298 412.257 552 442 c 0
 567.216 487.012 572.784 522.378 572.784 544.276 c 0
 572.784 556.919 570.928 565.072 568 568 c 0
EndSplineSet
Validated: 524289
EndChar

StartChar: t
Encoding: 23 116 23
Width: 630
VWidth: 7569
Flags: HW
LayerCount: 2
Fore
SplineSet
64 615 m 4
 72 631 87 647 87 647 c 6
 95 647 95 544 95 418 c 6
 95 189 l 5
 143 197 l 5
 293 213 450 315 497 410 c 4
 505 434 513 473 521 505 c 4
 529 560 560 647 576 647 c 4
 584 647 584 544 584 418 c 6
 584 181 l 5
 560 142 l 5
 537 103 l 5
 529 260 l 5
 529 426 l 5
 489 363 l 6
 442 284 363 205 284 166 c 4
 221 127 127 103 72 103 c 6
 40 103 l 5
 40 339 l 6
 40 576 48 583 64 615 c 4
EndSplineSet
Validated: 1
EndChar

StartChar: u
Encoding: 24 117 24
Width: 0
VWidth: 7569
Flags: HW
LayerCount: 2
Fore
SplineSet
-152.723 992.554 m 4
 -135.573 1009.7 -118.712 1017.66 -101.83 1017.66 c 4
 -87.209 1017.66 -72.5732 1011.69 -57.7227 1000.55 c 5
 -49.7227 984.554 -41.7227 968.554 -41.7227 952.554 c 4
 -41.7227 928.554 -64.7227 882.554 -88.7227 866.554 c 4
 -97.5615 859.924 -107.545 856.957 -117.704 856.957 c 4
 -144.322 856.957 -172.142 877.327 -183.723 905.554 c 5
 -183.723 929.554 l 5
 -372.723 811.554 l 6
 -475.723 748.554 -562.723 700.554 -562.723 700.554 c 6
 -565.389 700.554 -566.277 701.442 -566.277 703.221 c 4
 -566.277 706.776 -562.723 713.887 -562.723 724.554 c 4
 -554.723 740.554 -491.723 779.554 -357.723 858.554 c 4
 -254.723 921.554 -160.723 984.554 -152.723 992.554 c 4
-81.7227 952.554 m 4
 -89.7227 960.554 -104.723 968.554 -104.723 968.554 c 6
 -112.723 968.554 -144.723 953.554 -152.723 945.554 c 5
 -152.723 945.554 -152.723 937.554 -144.723 929.554 c 4
 -128.723 913.554 -120.723 905.554 -104.723 905.554 c 4
 -83.6895 905.554 -73.457 912.034 -73.457 925.562 c 4
 -73.457 932.616 -76.2383 941.587 -81.7227 952.554 c 4
EndSplineSet
Validated: 524289
EndChar

StartChar: v
Encoding: 25 118 25
Width: 688
VWidth: 7569
Flags: HW
LayerCount: 2
Fore
SplineSet
267.099 32.0996 m 6
 283.099 63.0996 l 5
 322.099 40.0996 l 6
 346.099 24.0996 361.099 8.09961 361.099 8.09961 c 6
 361.099 0.0996094 354.099 -14.9004 338.099 -38.9004 c 6
 322.099 -70.9004 l 5
 283.099 -46.9004 l 6
 259.099 -30.9004 243.099 -14.9004 243.099 -14.9004 c 6
 243.099 -6.90039 251.099 8.09961 267.099 32.0996 c 6
71.4648 615 m 1
 94.4648 654 l 1
 347.465 654 l 1
 599.465 654 l 1
 599.465 591 l 2
 599.465 512 583.465 449 544.465 378 c 2
 512.465 323 l 1
 536.465 331 l 1
 552.801 341.053 567.908 345.491 581.714 345.491 c 0
 600.868 345.491 617.518 336.947 631.465 323 c 0
 646.449 308.017 654.197 293.252 654.197 274.498 c 0
 654.197 253.199 644.204 226.755 623.465 189 c 0
 584.465 118 559.465 103 512.465 95 c 1
 473.465 95 l 1
 473.465 -95 l 1
 473.465 -276 l 1
 449.465 -315 l 2
 441.465 -339 426.465 -355 426.465 -355 c 2
 418.465 -355 418.465 -252 418.465 -118 c 2
 418.465 118 l 1
 394.465 134 l 1
 362.465 158 l 1
 331.465 142 l 2
 281.684 117.424 219.195 104.761 168.021 104.761 c 0
 137.986 104.761 111.849 109.123 94.4648 118 c 0
 78.4648 126 55.4648 142 47.4648 158 c 0
 37.6357 173.973 32 191.287 32 211.592 c 0
 32 240.865 43.7139 276.354 71.4648 323 c 0
 118.465 402 150.465 418 205.465 418 c 1
 252.465 410 291.465 387 362.465 308 c 0
 393.356 271.852 404.376 259.029 412.844 259.029 c 0
 417.26 259.029 420.981 262.516 426.465 268 c 0
 465.465 292 496.465 323 512.465 355 c 0
 528.465 394 544.465 473 544.465 528 c 2
 544.465 568 l 1
 291.465 568 l 1
 47.4648 568 l 1
 71.4648 615 l 1
228.465 308 m 0
 205.742 321.221 178.923 327.443 154.707 327.443 c 0
 120.308 327.443 91.1602 314.888 86.4648 292 c 0
 86.4648 284 94.4648 260 102.465 244 c 0
 120.441 208.796 146.833 190.984 192.146 190.984 c 0
 207.329 190.984 224.638 192.984 244.465 197 c 0
 283.465 197 315.465 205 315.465 205 c 2
 315.936 205.471 316.161 206.159 316.161 207.043 c 0
 316.161 221.19 258.583 285.412 228.465 308 c 0
560.465 252 m 0
 551.66 256.402 541.719 258.458 531.935 258.458 c 0
 506.158 258.458 481.465 244.195 481.465 221 c 1
 478.972 213.519 477.255 207.592 477.255 202.735 c 0
 477.255 192.013 485.622 186.506 512.465 181 c 0
 536.465 181 599.465 189 599.465 205 c 0
 599.465 213 576.465 252 560.465 252 c 0
449.465 221 m 2
 457.465 237 449.465 245 441.465 229 c 1
 441.465 213 l 1
 449.465 213 449.465 221 449.465 221 c 2
EndSplineSet
Validated: 524289
EndChar

StartChar: w
Encoding: 26 119 26
Width: 589
VWidth: 7569
Flags: HW
LayerCount: 2
Fore
SplineSet
231.074 647 m 0
 250.559 652.668 274.058 655.324 298.728 655.324 c 0
 343.698 655.324 392.559 646.498 428.074 631 c 0
 506.553 585.565 552.275 501.915 552.275 412.183 c 0
 552.275 393.291 550.249 374.131 546.074 355 c 0
 530.074 300 467.074 189 428.074 150 c 0
 388.047 117.334 334.896 101.391 280.696 101.391 c 0
 217.094 101.391 152.047 123.347 105.074 166 c 0
 62.7168 208.358 34 278.593 34 344.729 c 0
 34 364.468 36.5586 383.842 42.0742 402 c 0
 58.0742 457 121.074 568 160.074 607 c 1
 184.074 615 207.074 639 231.074 647 c 0
381.074 536 m 0
 348.782 554.695 308.401 563.454 268.22 563.454 c 0
 190.192 563.454 112.917 530.427 97.0742 473 c 0
 92.4541 454.709 90.168 435.862 90.168 417.016 c 0
 90.168 337.978 130.365 258.951 207.074 221 c 0
 246.074 197 255.074 197 318.074 197 c 0
 365.074 197 381.074 197 420.074 213 c 0
 475.074 245 491.074 260 499.074 315 c 0
 499.666 321.427 499.956 327.896 499.956 334.385 c 0
 499.956 415.729 454.239 499.881 381.074 536 c 0
EndSplineSet
Validated: 524289
EndChar

StartChar: x
Encoding: 27 120 27
Width: 615
VWidth: 7569
Flags: HW
LayerCount: 2
Fore
SplineSet
57 615 m 5
 81 654 l 5
 333 654 l 5
 586 654 l 5
 562 615 l 5
 538 568 l 5
 420 560 l 6
 286 552 223 537 152 505 c 4
 97 473 89 457 89 410 c 4
 97 307 192 229 318 205 c 5
 349 205 l 5
 381 260 l 6
 420 331 436 347 475 347 c 4
 499 347 514 339 538 323 c 5
 553.209 304.464 561.189 289.315 561.189 270.041 c 4
 561.189 248.762 551.464 222.452 531 181 c 4
 485.16 103.95 476.419 102.999 387.88 102.999 c 4
 381 103 l 4
 168 119 34 205 34 339 c 4
 34 378 41 394 65 449 c 4
 81 481 105 520 121 536 c 6
 144 568 l 5
 89 568 l 5
 34 568 l 5
 57 615 l 5
460 252 m 4
 452 256 442 258 433 258 c 4
 424 258 416 256 412 252 c 4
 410.583 250.583 409.919 248.444 409.919 245.796 c 4
 409.919 233.489 424.251 210.166 444 197 c 4
 456 193 467.75 191 477.5 191 c 4
 487.25 191 495 193 499 197 c 4
 500.106 198.106 500.62 199.806 500.62 201.934 c 4
 500.62 215.193 480.682 245.106 460 252 c 4
EndSplineSet
Validated: 524289
EndChar

StartChar: z
Encoding: 28 122 28
Width: 632
VWidth: 7569
Flags: HW
LayerCount: 2
Fore
SplineSet
64 615 m 0
 72 631 87 647 87 647 c 2
 95 647 95 544 95 418 c 2
 95 189 l 1
 143 197 l 1
 293 213 450 315 497 410 c 0
 505 434 513 473 521 505 c 0
 529 560 560 647 576 647 c 0
 584 647 584 441 584 181 c 2
 584 -276 l 1
 560 -315 l 2
 552 -339 537 -355 537 -355 c 2
 529 -355 529 -182 529 39 c 2
 529 426 l 1
 490 363 l 2
 443 284 364 205 285 166 c 0
 222 127 127 103 72 103 c 2
 40 103 l 1
 40 339 l 2
 40 576 48 583 64 615 c 0
285 513 m 0
 287.144 515.144 289.216 516.139 291.716 516.139 c 0
 298.546 516.139 308.574 508.713 332 497 c 2
 371 473 l 1
 355 442 l 2
 335.52 408.518 328.269 395.048 316.777 395.048 c 0
 309.394 395.048 300.258 400.61 285 410 c 2
 245 434 l 1
 261 465 l 2
 269 489 285 505 285 513 c 0
EndSplineSet
Validated: 524289
EndChar

StartChar: I
Encoding: 32 73 31
Width: 141
VWidth: 7569
Flags: HW
LayerCount: 2
Fore
SplineSet
207.486 925.15 m 4
 341.486 1004.15 452.486 1075.15 460.486 1075.15 c 4
 464.486 1075.15 466.486 1073.15 466.486 1069.15 c 4
 466.486 1065.15 464.486 1059.15 460.486 1051.15 c 4
 452.486 1043.15 373.486 988.15 207.486 878.15 c 5
 73.4863 799.15 -44.5137 728.15 -44.5137 728.15 c 6
 -47.1797 728.15 -48.0684 729.039 -48.0684 730.817 c 4
 -48.0684 734.373 -44.5137 741.483 -44.5137 752.15 c 5
 -36.5137 760.15 49.4863 822.15 207.486 925.15 c 4
EndSplineSet
Refer: 3 81 N 1 0 0 1 0 0 2
EndChar

StartChar: U
Encoding: 33 85 32
Width: 141
VWidth: 7569
Flags: HW
LayerCount: 2
Fore
SplineSet
395.361 1028.23 m 4
 412.511 1045.38 429.372 1053.34 446.254 1053.34 c 4
 460.875 1053.34 475.511 1047.37 490.361 1036.23 c 5
 498.361 1020.23 506.361 1004.23 506.361 988.234 c 4
 506.361 964.234 483.361 918.234 459.361 902.234 c 4
 450.522 895.604 440.539 892.637 430.38 892.637 c 4
 403.762 892.637 375.942 913.008 364.361 941.234 c 5
 364.361 965.234 l 5
 175.361 847.234 l 6
 72.3613 784.234 -14.6387 736.234 -14.6387 736.234 c 6
 -17.3047 736.234 -18.1934 737.123 -18.1934 738.9 c 4
 -18.1934 742.457 -14.6387 749.566 -14.6387 760.234 c 4
 -6.63867 776.234 56.3613 815.234 190.361 894.234 c 4
 293.361 957.234 387.361 1020.23 395.361 1028.23 c 4
466.361 988.234 m 4
 458.361 996.234 443.361 1004.23 443.361 1004.23 c 6
 435.361 1004.23 403.361 989.234 395.361 981.234 c 5
 395.361 981.234 395.361 973.234 403.361 965.234 c 4
 419.361 949.234 427.361 941.234 443.361 941.234 c 4
 464.395 941.234 474.627 947.715 474.627 961.242 c 4
 474.627 968.297 471.846 977.268 466.361 988.234 c 4
EndSplineSet
Refer: 3 81 N 1 0 0 1 0 0 2
EndChar

StartChar: E
Encoding: 34 69 33
Width: 141
VWidth: 7569
Flags: HW
LayerCount: 2
Fore
SplineSet
377.361 1025.23 m 4
 394.511 1042.38 411.372 1050.34 428.254 1050.34 c 4
 442.875 1050.34 457.511 1044.37 472.361 1033.23 c 5
 480.361 1017.23 488.361 1001.23 488.361 985.234 c 4
 488.361 961.234 465.361 915.234 441.361 899.234 c 4
 432.522 892.604 422.539 889.637 412.38 889.637 c 4
 385.762 889.637 357.942 910.008 346.361 938.234 c 5
 346.361 962.234 l 5
 157.361 844.234 l 6
 54.3613 781.234 -32.6387 733.234 -32.6387 733.234 c 6
 -35.3047 733.234 -36.1934 734.123 -36.1934 735.9 c 4
 -36.1934 739.457 -32.6387 746.566 -32.6387 757.234 c 4
 -24.6387 773.234 38.3613 812.234 172.361 891.234 c 4
 275.361 954.234 369.361 1017.23 377.361 1025.23 c 4
448.361 985.234 m 4
 440.361 993.234 425.361 1001.23 425.361 1001.23 c 6
 417.361 1001.23 385.361 986.234 377.361 978.234 c 5
 377.361 978.234 377.361 970.234 385.361 962.234 c 4
 401.361 946.234 409.361 938.234 425.361 938.234 c 4
 446.395 938.234 456.627 944.715 456.627 958.242 c 4
 456.627 965.297 453.846 974.268 448.361 985.234 c 4
EndSplineSet
Refer: 3 81 N 1 0 0 1 0 0 2
EndChar

